<?xml version="1.0" encoding="UTF-8" standalone="no"?>
<svg width="274px" height="263px" viewBox="0 0 274 263" version="1.1" xmlns="http://www.w3.org/2000/svg" xmlns:xlink="http://www.w3.org/1999/xlink">
    <defs>
        <filter x="-50%" y="-50%" width="200%" height="200%" filterUnits="objectBoundingBox" id="filter-1">
            <feOffset dx="0" dy="3" in="SourceAlpha" result="shadowOffsetOuter1"></feOffset>
            <feGaussianBlur stdDeviation="3" in="shadowOffsetOuter1" result="shadowBlurOuter1"></feGaussianBlur>
            <feColorMatrix values="0 0 0 0 0   0 0 0 0 0   0 0 0 0 0  0 0 0 0.16 0" type="matrix" in="shadowBlurOuter1" result="shadowMatrixOuter1"></feColorMatrix>
            <feMerge>
                <feMergeNode in="shadowMatrixOuter1"></feMergeNode>
                <feMergeNode in="SourceGraphic"></feMergeNode>
            </feMerge>
        </filter>
        <filter x="-50%" y="-50%" width="200%" height="200%" filterUnits="objectBoundingBox" id="filter-2">
            <feOffset dx="0" dy="0" in="SourceAlpha" result="shadowOffsetOuter1"></feOffset>
            <feGaussianBlur stdDeviation="6.5" in="shadowOffsetOuter1" result="shadowBlurOuter1"></feGaussianBlur>
            <feColorMatrix values="0 0 0 0 0   0 0 0 0 0   0 0 0 0 0  0 0 0 0.0579710145 0" type="matrix" in="shadowBlurOuter1" result="shadowMatrixOuter1"></feColorMatrix>
            <feMerge>
                <feMergeNode in="shadowMatrixOuter1"></feMergeNode>
                <feMergeNode in="SourceGraphic"></feMergeNode>
            </feMerge>
        </filter>
        <rect id="path-3" x="0" y="0" width="225" height="225" rx="3"></rect>
        <mask id="mask-5" maskContentUnits="userSpaceOnUse" maskUnits="objectBoundingBox" x="-1" y="-1" width="227" height="227">
            <rect x="-1" y="-1" width="227" height="227" fill="white"></rect>
            <use xlink:href="#path-3" fill="black"></use>
        </mask>
        <rect id="path-6" x="0" y="0" width="38" height="76" rx="5"></rect>
        <mask id="mask-7" maskContentUnits="userSpaceOnUse" maskUnits="objectBoundingBox" x="0" y="0" width="38" height="76" fill="white">
            <use xlink:href="#path-6"></use>
        </mask>
        <mask id="mask-9" maskContentUnits="userSpaceOnUse" maskUnits="objectBoundingBox" x="0" y="0" width="38" height="76" fill="white">
            <use xlink:href="#path-6"></use>
        </mask>
        <circle id="path-10" cx="19" cy="23" r="6"></circle>
        <mask id="mask-11" maskContentUnits="userSpaceOnUse" maskUnits="objectBoundingBox" x="0" y="0" width="12" height="12" fill="white">
            <use xlink:href="#path-10"></use>
        </mask>
        <rect id="path-12" x="-5" y="15" width="4" height="4"></rect>
        <mask id="mask-13" maskContentUnits="userSpaceOnUse" maskUnits="objectBoundingBox" x="0" y="0" width="4" height="4" fill="white">
            <use xlink:href="#path-12"></use>
        </mask>
        <rect id="path-14" x="0" y="15" width="4" height="4"></rect>
        <mask id="mask-15" maskContentUnits="userSpaceOnUse" maskUnits="objectBoundingBox" x="0" y="0" width="4" height="4" fill="white">
            <use xlink:href="#path-14"></use>
        </mask>
        <circle id="path-16" cx="2" cy="1.5" r="1.5"></circle>
        <mask id="mask-17" maskContentUnits="userSpaceOnUse" maskUnits="objectBoundingBox" x="0" y="0" width="3" height="3" fill="white">
            <use xlink:href="#path-16"></use>
        </mask>
        <rect id="path-18" x="5" y="0" width="11" height="3" rx="1.5"></rect>
        <mask id="mask-19" maskContentUnits="userSpaceOnUse" maskUnits="objectBoundingBox" x="0" y="0" width="11" height="3" fill="white">
            <use xlink:href="#path-18"></use>
        </mask>
        <rect id="path-20" x="0" y="0" width="56" height="64" rx="5"></rect>
        <mask id="mask-21" maskContentUnits="userSpaceOnUse" maskUnits="objectBoundingBox" x="0" y="0" width="56" height="64" fill="white">
            <use xlink:href="#path-20"></use>
        </mask>
        <mask id="mask-23" maskContentUnits="userSpaceOnUse" maskUnits="objectBoundingBox" x="0" y="0" width="56" height="64" fill="white">
            <use xlink:href="#path-20"></use>
        </mask>
        <circle id="path-24" cx="28" cy="21" r="6"></circle>
        <mask id="mask-25" maskContentUnits="userSpaceOnUse" maskUnits="objectBoundingBox" x="0" y="0" width="12" height="12" fill="white">
            <use xlink:href="#path-24"></use>
        </mask>
        <rect id="path-26" x="2" y="13" width="4" height="4"></rect>
        <mask id="mask-27" maskContentUnits="userSpaceOnUse" maskUnits="objectBoundingBox" x="0" y="0" width="4" height="4" fill="white">
            <use xlink:href="#path-26"></use>
        </mask>
        <rect id="path-28" x="7" y="13" width="4" height="4"></rect>
        <mask id="mask-29" maskContentUnits="userSpaceOnUse" maskUnits="objectBoundingBox" x="0" y="0" width="4" height="4" fill="white">
            <use xlink:href="#path-28"></use>
        </mask>
        <circle id="path-30" cx="2" cy="1.5" r="1.5"></circle>
        <mask id="mask-31" maskContentUnits="userSpaceOnUse" maskUnits="objectBoundingBox" x="0" y="0" width="3" height="3" fill="white">
            <use xlink:href="#path-30"></use>
        </mask>
        <polygon id="path-32" points="0.000501464093 46.8096 56.983 46.8096 56.983 23.40465 56.983 -0.0003 0.000501464093 -0.0003"></polygon>
    </defs>
    <g id="Page-1" stroke="none" stroke-width="1" fill="none" fill-rule="evenodd">
        <g id="Artboard-3" transform="translate(-135.000000, -591.000000)">
            <g id="copypaste2" filter="url(#filter-1)" transform="translate(149.000000, 593.000000)">
                <g id="browser" transform="translate(0.000000, 19.000000)">
                    <g id="main-window" filter="url(#filter-2)">
                        <mask id="mask-4" fill="white">
                            <use xlink:href="#path-3"></use>
                        </mask>
                        <g id="Mask">
                            <use fill="#EDF1F5" fill-rule="evenodd" xlink:href="#path-3"></use>
                            <use stroke="#EDF1F5" mask="url(#mask-5)" stroke-width="2" xlink:href="#path-3"></use>
                        </g>
                        <rect id="window-mask" fill="#FFFFFF" mask="url(#mask-4)" x="-1" y="12" width="227" height="213"></rect>
                        <rect id="window-mask-copy" fill="#FFFFFF" mask="url(#mask-4)" x="5" y="12" width="227" height="169"></rect>
                        <g id="iphone" mask="url(#mask-4)">
                            <g transform="translate(173.000000, 39.000000)">
                                <mask id="mask-8" fill="white">
                                    <use xlink:href="#path-6"></use>
                                </mask>
                                <g id="Rectangle-37" stroke="#EDF1F5" mask="url(#mask-7)" stroke-width="2" fill="#FFFFFF" fill-rule="evenodd">
                                    <use mask="url(#mask-9)" xlink:href="#path-6"></use>
                                </g>
                                <g id="Oval-43" stroke="none" fill="none" mask="url(#mask-8)" stroke-width="2">
                                    <use stroke="#EDF1F5" mask="url(#mask-11)" xlink:href="#path-10"></use>
                                </g>
                                <circle id="Oval-46" stroke="none" fill="#EDF1F5" fill-rule="evenodd" mask="url(#mask-8)" cx="19" cy="21" r="1"></circle>
                                <circle id="Oval-46-Copy" stroke="none" fill="#EDF1F5" fill-rule="evenodd" mask="url(#mask-8)" cx="19" cy="26" r="3"></circle>
                                <rect id="Rectangle-212" stroke="none" fill="#EDF1F5" fill-rule="evenodd" mask="url(#mask-8)" x="32" y="14" width="4" height="4"></rect>
                                <g id="Rectangle-212-Copy" stroke="none" fill="none" mask="url(#mask-8)" stroke-width="2">
                                    <use stroke="#EDF1F5" mask="url(#mask-13)" xlink:href="#path-12"></use>
                                </g>
                                <g id="Rectangle-212-Copy" stroke="none" fill="none" mask="url(#mask-8)" stroke-width="2">
                                    <use stroke="#EDF1F5" mask="url(#mask-15)" xlink:href="#path-14"></use>
                                </g>
                                <path d="M-6.50909016,32.5 L48.5,32.5" id="Line-Copy-4" stroke="#EDF1F5" stroke-width="1" stroke-linecap="square" fill="none" mask="url(#mask-8)"></path>
                                <path d="M-6.50909016,40.5 L48.5,40.5" id="Line-Copy-5" stroke="#EDF1F5" stroke-width="1" stroke-linecap="square" fill="none" mask="url(#mask-8)"></path>
                                <rect id="Rectangle-209-Copy" stroke="none" fill="#EDF1F5" fill-rule="evenodd" mask="url(#mask-8)" x="13" y="34" width="16" height="5"></rect>
                                <rect id="Rectangle-209-Copy-2" stroke="none" fill="#EDF1F5" fill-rule="evenodd" mask="url(#mask-8)" x="33" y="34" width="16" height="5"></rect>
                                <path d="M-8.50909016,11.5 L46.5,11.5" id="Line" stroke="#EDF1F5" stroke-width="1" stroke-linecap="square" fill="none" mask="url(#mask-8)"></path>
                                <g id="Group-7" stroke="none" stroke-width="1" fill="none" fill-rule="evenodd" mask="url(#mask-8)">
                                    <g transform="translate(11.000000, 5.000000)" id="Group-2">
                                        <g>
                                            <use id="Oval-9" stroke="#EDF1F5" mask="url(#mask-17)" stroke-width="2" fill="#FFFFFF" xlink:href="#path-16"></use>
                                            <use id="Rectangle-106" stroke="#EDF1F5" mask="url(#mask-19)" stroke-width="2" fill="#FFFFFF" xlink:href="#path-18"></use>
                                        </g>
                                    </g>
                                </g>
                            </g>
                        </g>
                        <g id="ipad" mask="url(#mask-4)">
                            <g transform="translate(137.000000, 50.000000)">
                                <mask id="mask-22" fill="white">
                                    <use xlink:href="#path-20"></use>
                                </mask>
                                <g id="Rectangle-37" stroke="#EDF1F5" mask="url(#mask-21)" stroke-width="2" fill="#FFFFFF" fill-rule="evenodd">
                                    <use mask="url(#mask-23)" xlink:href="#path-20"></use>
                                </g>
                                <g id="Oval-43" stroke="none" fill="none" mask="url(#mask-22)" stroke-width="2">
                                    <use stroke="#EDF1F5" mask="url(#mask-25)" xlink:href="#path-24"></use>
                                </g>
                                <circle id="Oval-46" stroke="none" fill="#EDF1F5" fill-rule="evenodd" mask="url(#mask-22)" cx="28" cy="19" r="1"></circle>
                                <circle id="Oval-46-Copy" stroke="none" fill="#EDF1F5" fill-rule="evenodd" mask="url(#mask-22)" cx="28" cy="24" r="3"></circle>
                                <rect id="Rectangle-212" stroke="none" fill="#EDF1F5" fill-rule="evenodd" mask="url(#mask-22)" x="50" y="13" width="4" height="4"></rect>
                                <g id="Rectangle-212-Copy" stroke="none" fill="none" mask="url(#mask-22)" stroke-width="2">
                                    <use stroke="#EDF1F5" mask="url(#mask-27)" xlink:href="#path-26"></use>
                                </g>
                                <g id="Rectangle-212-Copy" stroke="none" fill="none" mask="url(#mask-22)" stroke-width="2">
                                    <use stroke="#EDF1F5" mask="url(#mask-29)" xlink:href="#path-28"></use>
                                </g>
                                <path d="M0.490909845,11.5 L55.5,11.5" id="Line" stroke="#EDF1F5" stroke-width="1" stroke-linecap="square" fill="none" mask="url(#mask-22)"></path>
                                <path d="M0.490909845,30.5 L55.5,30.5" id="Line-Copy-4" stroke="#EDF1F5" stroke-width="1" stroke-linecap="square" fill="none" mask="url(#mask-22)"></path>
                                <path d="M0.490909845,38.5 L55.5,38.5" id="Line-Copy-5" stroke="#EDF1F5" stroke-width="1" stroke-linecap="square" fill="none" mask="url(#mask-22)"></path>
                                <rect id="Rectangle-209" stroke="none" fill="#EDF1F5" fill-rule="evenodd" mask="url(#mask-22)" x="0" y="32" width="16" height="5"></rect>
                                <rect id="Rectangle-209-Copy" stroke="none" fill="#EDF1F5" fill-rule="evenodd" mask="url(#mask-22)" x="20" y="32" width="16" height="5"></rect>
                                <rect id="Rectangle-209-Copy-2" stroke="none" fill="#EDF1F5" fill-rule="evenodd" mask="url(#mask-22)" x="40" y="32" width="16" height="5"></rect>
                                <g id="Group-7" stroke="none" stroke-width="1" fill="none" fill-rule="evenodd" mask="url(#mask-22)">
                                    <g transform="translate(26.000000, 5.000000)" stroke="#EDF1F5" id="Oval-9" stroke-width="2" fill="#FFFFFF">
                                        <use mask="url(#mask-31)" xlink:href="#path-30"></use>
                                    </g>
                                </g>
                            </g>
                        </g>
                        <g id="headline" mask="url(#mask-4)" fill="#EDF1F5">
                            <g transform="translate(14.000000, 38.000000)">
                                <rect id="Rectangle-40" x="0" y="0" width="111.833984" height="8"></rect>
                                <rect id="Rectangle-40-Copy" x="0" y="11" width="86.0261418" height="8"></rect>
                            </g>
                        </g>
                        <rect id="section" fill="#FFFFFF" mask="url(#mask-4)" x="-1" y="86" width="227" height="74"></rect>
                        <g id="CTA" mask="url(#mask-4)">
                            <g transform="translate(14.000000, 70.000000)">
                                <rect id="Rectangle-104" fill="#EDF1F5" x="0" y="0" width="39" height="12" rx="1"></rect>
                                <rect id="Rectangle-105" fill="#FFFFFF" x="3" y="5" width="22" height="2"></rect>
                                <rect id="Rectangle-105-Copy" fill="#FFFFFF" x="28" y="5" width="8" height="2"></rect>
                            </g>
                        </g>
                    </g>
                    <g id="top" transform="translate(4.000000, 4.000000)">
                        <circle id="Oval-1" fill="#00B68A" cx="11.5" cy="2" r="1.5"></circle>
                        <circle id="Oval-1-Copy" fill="#FFC600" cx="6.5" cy="2" r="1.5"></circle>
                        <circle id="Oval-1-Copy-2" fill="#E75545" cx="1.5" cy="2" r="1.5"></circle>
                        <rect id="address-bar" fill="#FFFFFF" opacity="0.625349813" x="17" y="0" width="175" height="4"></rect>
                    </g>
                </g>
                <g id="price" transform="translate(150.000000, 139.000000)">
                    <path d="M0.5,57.5 L45.5,57.5" id="Line" stroke="#979797" stroke-linecap="square" opacity="0.204932369"></path>
                    <path d="M0.5,46.5 L45.5,46.5" id="Line" stroke="#979797" stroke-linecap="square" opacity="0.204932369"></path>
                    <path d="M0.5,35.5 L45.5,35.5" id="Line" stroke="#979797" stroke-linecap="square" opacity="0.204932369"></path>
                    <text id="$" font-family="Arial-BoldMT, Arial" font-size="14" font-weight="bold" fill="#EDF1F5">
                        <tspan x="19" y="13">$</tspan>
                    </text>
                    <path d="M0.5,24.5 L45.5,24.5" id="Line" stroke="#979797" stroke-linecap="square" opacity="0.204932369"></path>
                </g>
                <g id="price" transform="translate(91.000000, 139.000000)">
                    <path d="M0.5,57.5 L45.5,57.5" id="Line" stroke="#979797" stroke-linecap="square" opacity="0.204932369"></path>
                    <path d="M0.5,46.5 L45.5,46.5" id="Line" stroke="#979797" stroke-linecap="square" opacity="0.204932369"></path>
                    <path d="M0.5,35.5 L45.5,35.5" id="Line" stroke="#979797" stroke-linecap="square" opacity="0.204932369"></path>
                    <text id="$" font-family="Arial-BoldMT, Arial" font-size="14" font-weight="bold" fill="#EDF1F5">
                        <tspan x="19" y="13">$</tspan>
                    </text>
                    <path d="M0.5,24.5 L45.5,24.5" id="Line" stroke="#979797" stroke-linecap="square" opacity="0.204932369"></path>
                </g>
                <g id="price" transform="translate(30.000000, 139.000000)">
                    <path d="M0.5,57.5 L45.5,57.5" id="Line" stroke="#979797" stroke-linecap="square" opacity="0.204932369"></path>
                    <path d="M0.5,46.5 L45.5,46.5" id="Line" stroke="#979797" stroke-linecap="square" opacity="0.204932369"></path>
                    <path d="M0.5,35.5 L45.5,35.5" id="Line" stroke="#979797" stroke-linecap="square" opacity="0.204932369"></path>
                    <text id="$" font-family="Arial-BoldMT, Arial" font-size="14" font-weight="bold" fill="#EDF1F5">
                        <tspan x="19" y="13">$</tspan>
                    </text>
                    <path d="M0.5,24.5 L45.5,24.5" id="Line" stroke="#979797" stroke-linecap="square" opacity="0.204932369"></path>
                </g>
                <g id="arrowtoo" transform="translate(50.000000, 32.000000) scale(-1, 1) rotate(180.000000) translate(-50.000000, -32.000000) translate(35.000000, 0.000000)" fill="#118C4E">
                    <path d="M16.7878117,7.71219445 C14.7389428,7.23301159 12.3909217,6.61966799 10.0079659,6.14531344 C7.98698298,5.74275619 7.9701171,5.81531136 6.82983827,2.49341194 C8.01647054,2.68484559 8.9238852,2.83160637 9.62670834,2.9465152 C10.1143822,1.07544214 10.785746,-0.305890534 12.9583872,0.134551118 C15.9427645,0.73949466 18.9000474,1.48591614 21.9099196,1.96352782 C23.8978634,2.2775661 25.959205,2.2225498 28.4187127,2.35742574 C30.4145832,4.11004631 29.8498241,6.49773886 28.9337597,9.44249067 C27.4229593,14.2977209 26.7181273,19.3732601 25.5871059,24.339155 C25.0839983,26.5503022 24.4154427,28.7329866 23.7176979,30.8984678 C23.5730129,31.3449049 22.9655086,31.6584691 22.5719874,32.0333653 C22.2704668,31.5369938 21.7703776,31.0728386 21.7128625,30.5398688 C21.6243892,29.7514994 21.8941428,28.9147987 21.9364827,28.09725 C22.2436422,22.2120001 22.5542927,16.3270035 22.8017076,10.4409834 C22.8334712,9.67148762 22.5195869,8.90131854 22.206674,7.34186571 C19.213384,9.93373604 16.2692784,11.8654379 14.1204788,14.456607 C7.0942429,22.9263756 2.63082493,32.3893085 2.51132563,43.5594066 C2.41445644,52.4985746 6.72587992,58.1619466 14.1208771,61.9267767 C14.6099315,62.1748278 15.091149,62.4371208 15.356957,63.1799394 C13.9519039,62.5233978 12.5031462,61.9421264 11.1495197,61.1946931 C5.53755935,58.1003953 1.93365101,53.5928598 1.10605759,46.8800649 C-0.147659595,36.7043834 2.30008678,27.3115748 7.99194107,18.6928592 C10.5102124,14.8786458 13.7135816,11.5085525 16.7878117,7.71219445" id="Fill-1"></path>
                </g>
                <g id="arrow1" transform="translate(225.500000, 77.500000) rotate(180.000000) translate(-225.500000, -77.500000) translate(197.000000, 54.000000)">
                    <mask id="mask-33" fill="white">
                        <use xlink:href="#path-32"></use>
                    </mask>
                    <g id="Clip-2"></g>
                    <path d="M45.502,11.5127 C44.585,9.5347 43.584,7.2257 42.453,4.9797 C41.494,3.0747 41.427,3.1087 43.291,-0.0003 C43.889,1.0887 44.346,1.9217 44.699,2.5677 C46.46,1.7337 47.956,1.3707 48.981,3.4237 C50.389,6.2437 51.67,9.1347 53.193,11.8917 C54.2,13.7117 55.54,15.3487 56.983,17.4337 C56.877,20.2057 54.666,21.3167 51.801,22.5087 C47.077,24.4737 42.689,27.2377 38.118,29.5837 C36.083,30.6287 33.966,31.5207 31.844,32.3777 C31.406,32.5537 30.78,32.2667 30.241,32.1937 C30.437,31.6227 30.483,30.9117 30.861,30.5147 C31.418,29.9247 32.238,29.5937 32.9,29.0907 C37.667,25.4717 42.436,21.8557 47.166,18.1877 C47.784,17.7077 48.185,16.9467 49.2,15.6677 C45.302,14.9417 41.948,13.8217 38.582,13.7807 C27.578,13.6447 17.415,16.2417 8.659,23.4867 C1.651,29.2837 -0.037,36.5057 1.691,44.9827 C1.806,45.5427 1.905,46.1057 1.495,46.8097 C1.121,45.2377 0.661,43.6797 0.39,42.0897 C-0.737,35.5007 0.498,29.6127 5.194,24.5287 C12.313,16.8227 21.153,12.6357 31.433,11.5907 C35.982,11.1277 40.617,11.5127 45.502,11.5127" id="Fill-1" fill="#118C4E" mask="url(#mask-33)"></path>
                </g>
            </g>
        </g>
    </g>
</svg>