<?xml version="1.0" encoding="UTF-8" standalone="no"?>
<svg width="297px" height="265px" viewBox="0 0 297 265" version="1.1" xmlns="http://www.w3.org/2000/svg" xmlns:xlink="http://www.w3.org/1999/xlink">
    <defs>
        <filter x="-50%" y="-50%" width="200%" height="200%" filterUnits="objectBoundingBox" id="filter-1">
            <feOffset dx="0" dy="3" in="SourceAlpha" result="shadowOffsetOuter1"></feOffset>
            <feGaussianBlur stdDeviation="3" in="shadowOffsetOuter1" result="shadowBlurOuter1"></feGaussianBlur>
            <feColorMatrix values="0 0 0 0 0   0 0 0 0 0   0 0 0 0 0  0 0 0 0.16 0" type="matrix" in="shadowBlurOuter1" result="shadowMatrixOuter1"></feColorMatrix>
            <feMerge>
                <feMergeNode in="shadowMatrixOuter1"></feMergeNode>
                <feMergeNode in="SourceGraphic"></feMergeNode>
            </feMerge>
        </filter>
        <filter x="-50%" y="-50%" width="200%" height="200%" filterUnits="objectBoundingBox" id="filter-2">
            <feOffset dx="0" dy="0" in="SourceAlpha" result="shadowOffsetOuter1"></feOffset>
            <feGaussianBlur stdDeviation="6.5" in="shadowOffsetOuter1" result="shadowBlurOuter1"></feGaussianBlur>
            <feColorMatrix values="0 0 0 0 0   0 0 0 0 0   0 0 0 0 0  0 0 0 0.0579710145 0" type="matrix" in="shadowBlurOuter1" result="shadowMatrixOuter1"></feColorMatrix>
            <feMerge>
                <feMergeNode in="shadowMatrixOuter1"></feMergeNode>
                <feMergeNode in="SourceGraphic"></feMergeNode>
            </feMerge>
        </filter>
        <rect id="path-3" x="0" y="0" width="225" height="225" rx="3"></rect>
        <mask id="mask-5" maskContentUnits="userSpaceOnUse" maskUnits="objectBoundingBox" x="-1" y="-1" width="227" height="227">
            <rect x="-1" y="-1" width="227" height="227" fill="white"></rect>
            <use xlink:href="#path-3" fill="black"></use>
        </mask>
        <rect id="path-6" x="4" y="27" width="216" height="72"></rect>
        <mask id="mask-7" maskContentUnits="userSpaceOnUse" maskUnits="objectBoundingBox" x="0" y="0" width="216" height="72" fill="white">
            <use xlink:href="#path-6"></use>
        </mask>
        <rect id="path-8" x="4" y="114" width="216" height="72"></rect>
        <mask id="mask-9" maskContentUnits="userSpaceOnUse" maskUnits="objectBoundingBox" x="0" y="0" width="216" height="72" fill="white">
            <use xlink:href="#path-8"></use>
        </mask>
        <polygon id="path-10" points="0.000501464093 46.8096 56.983 46.8096 56.983 23.40465 56.983 -0.0003 0.000501464093 -0.0003"></polygon>
    </defs>
    <g id="Page-1" stroke="none" stroke-width="1" fill="none" fill-rule="evenodd">
        <g id="Artboard-3" transform="translate(-135.000000, -331.000000)">
            <g id="copypaste1" filter="url(#filter-1)" transform="translate(149.000000, 332.000000)">
                <g id="browser" transform="translate(0.000000, 22.000000)">
                    <g id="main-window" filter="url(#filter-2)">
                        <mask id="mask-4" fill="white">
                            <use xlink:href="#path-3"></use>
                        </mask>
                        <g id="Mask">
                            <use fill="#EDF1F5" fill-rule="evenodd" xlink:href="#path-3"></use>
                            <use stroke="#EDF1F5" mask="url(#mask-5)" stroke-width="2" xlink:href="#path-3"></use>
                        </g>
                        <rect id="window-mask" fill="#FFFFFF" mask="url(#mask-4)" x="-1" y="12" width="227" height="213"></rect>
                        <rect id="window-mask-copy" fill="#FFFFFF" mask="url(#mask-4)" x="5" y="12" width="227" height="169"></rect>
                        <g id="headline" mask="url(#mask-4)" fill="#EDF1F5">
                            <g transform="translate(14.000000, 38.000000)">
                                <rect id="Rectangle-40" x="0" y="0" width="111.833984" height="8"></rect>
                                <rect id="Rectangle-40-Copy" x="0" y="11" width="86.0261418" height="8"></rect>
                            </g>
                        </g>
                        <rect id="section" fill="#FFFFFF" mask="url(#mask-4)" x="-1" y="86" width="227" height="74"></rect>
                        <g id="Dashed-Rectangle" mask="url(#mask-4)" stroke-width="2" stroke="#979797" stroke-dasharray="6">
                            <use mask="url(#mask-7)" xlink:href="#path-6"></use>
                        </g>
                        <g id="Dashed-Rectangle" mask="url(#mask-4)" stroke-width="2" stroke="#979797" stroke-dasharray="6">
                            <use mask="url(#mask-9)" xlink:href="#path-8"></use>
                        </g>
                        <g id="CTA" mask="url(#mask-4)">
                            <g transform="translate(14.000000, 70.000000)">
                                <rect id="Rectangle-104" fill="#EDF1F5" x="0" y="0" width="39" height="12" rx="1"></rect>
                                <rect id="Rectangle-105" fill="#FFFFFF" x="3" y="5" width="22" height="2"></rect>
                                <rect id="Rectangle-105-Copy" fill="#FFFFFF" x="28" y="5" width="8" height="2"></rect>
                            </g>
                        </g>
                    </g>
                    <g id="top" transform="translate(4.000000, 4.000000)">
                        <circle id="Oval-1" fill="#00B68A" cx="11.5" cy="2" r="1.5"></circle>
                        <circle id="Oval-1-Copy" fill="#FFC600" cx="6.5" cy="2" r="1.5"></circle>
                        <circle id="Oval-1-Copy-2" fill="#E75545" cx="1.5" cy="2" r="1.5"></circle>
                        <rect id="address-bar" fill="#FFFFFF" opacity="0.625349813" x="17" y="0" width="175" height="4"></rect>
                    </g>
                </g>
                <g id="price" transform="translate(150.000000, 142.000000)">
                    <path d="M0.5,57.5 L45.5,57.5" id="Line" stroke="#979797" stroke-linecap="square" opacity="0.204932369"></path>
                    <path d="M0.5,46.5 L45.5,46.5" id="Line" stroke="#979797" stroke-linecap="square" opacity="0.204932369"></path>
                    <path d="M0.5,35.5 L45.5,35.5" id="Line" stroke="#979797" stroke-linecap="square" opacity="0.204932369"></path>
                    <text id="$" font-family="Arial-BoldMT, Arial" font-size="14" font-weight="bold" fill="#EDF1F5">
                        <tspan x="19" y="13">$</tspan>
                    </text>
                    <path d="M0.5,24.5 L45.5,24.5" id="Line" stroke="#979797" stroke-linecap="square" opacity="0.204932369"></path>
                </g>
                <g id="price" transform="translate(91.000000, 142.000000)">
                    <path d="M0.5,57.5 L45.5,57.5" id="Line" stroke="#979797" stroke-linecap="square" opacity="0.204932369"></path>
                    <path d="M0.5,46.5 L45.5,46.5" id="Line" stroke="#979797" stroke-linecap="square" opacity="0.204932369"></path>
                    <path d="M0.5,35.5 L45.5,35.5" id="Line" stroke="#979797" stroke-linecap="square" opacity="0.204932369"></path>
                    <text id="$" font-family="Arial-BoldMT, Arial" font-size="14" font-weight="bold" fill="#EDF1F5">
                        <tspan x="19" y="13">$</tspan>
                    </text>
                    <path d="M0.5,24.5 L45.5,24.5" id="Line" stroke="#979797" stroke-linecap="square" opacity="0.204932369"></path>
                </g>
                <g id="price" transform="translate(30.000000, 142.000000)">
                    <path d="M0.5,57.5 L45.5,57.5" id="Line" stroke="#979797" stroke-linecap="square" opacity="0.204932369"></path>
                    <path d="M0.5,46.5 L45.5,46.5" id="Line" stroke="#979797" stroke-linecap="square" opacity="0.204932369"></path>
                    <path d="M0.5,35.5 L45.5,35.5" id="Line" stroke="#979797" stroke-linecap="square" opacity="0.204932369"></path>
                    <text id="$" font-family="Arial-BoldMT, Arial" font-size="14" font-weight="bold" fill="#EDF1F5">
                        <tspan x="19" y="13">$</tspan>
                    </text>
                    <path d="M0.5,24.5 L45.5,24.5" id="Line" stroke="#979797" stroke-linecap="square" opacity="0.204932369"></path>
                </g>
                <g id="picture" opacity="0.295708955" transform="translate(157.000000, 70.000000)" fill="#000000">
                    <g id="Capa_1" opacity="0.5">
                        <g id="Group">
                            <path d="M38.3275862,0 L0.672413793,0 C0.301241379,0 0,0.30123913 0,0.673913043 L0,30.326087 C0,30.6987609 0.301241379,31 0.672413793,31 L38.3275862,31 C38.6987586,31 39,30.6987609 39,30.326087 L39,0.673913043 C39,0.30123913 38.6987586,0 38.3275862,0 L38.3275862,0 Z M37.6551724,29.6521739 L1.34482759,29.6521739 L1.34482759,1.34782609 L37.6551724,1.34782609 L37.6551724,29.6521739 L37.6551724,29.6521739 Z" id="Shape"></path>
                            <path d="M10.7586207,14.919087 C12.8236034,14.919087 14.5032931,13.2356522 14.5032931,11.1667391 C14.5032931,9.09647826 12.8236034,7.41304348 10.7586207,7.41304348 C8.69363793,7.41304348 7.01394828,9.09647826 7.01394828,11.1660652 C7.01394828,13.2356522 8.69363793,14.919087 10.7586207,14.919087 L10.7586207,14.919087 Z M10.7586207,8.76086957 C12.081931,8.76086957 13.1584655,9.84047826 13.1584655,11.1660652 C13.1584655,12.4916522 12.081931,13.5712609 10.7586207,13.5712609 C9.43531034,13.5712609 8.35877586,12.4923261 8.35877586,11.1667391 C8.35877586,9.84115217 9.43531034,8.76086957 10.7586207,8.76086957 L10.7586207,8.76086957 Z" id="Shape"></path>
                            <path d="M4.70689655,26.9565217 C4.86424138,26.9565217 5.02293103,26.9012609 5.15068966,26.7887174 L16.1197759,17.1099783 L23.0469828,24.0519565 C23.3098966,24.3154565 23.7348621,24.3154565 23.9977759,24.0519565 C24.2606897,23.7884565 24.2606897,23.3625435 23.9977759,23.0990435 L20.7654828,19.8595435 L26.9389138,13.0840217 L34.5109655,20.0408261 C34.7846379,20.2921957 35.2102759,20.2733261 35.4610862,19.9990435 C35.7118966,19.7247609 35.6937414,19.2981739 35.4193966,19.0468043 L27.350431,11.6337609 C27.2186379,11.5131304 27.0431379,11.4531522 26.8662931,11.4571957 C26.6881034,11.4652826 26.52,11.5441304 26.3996379,11.6762174 L19.8140172,18.9052826 L16.6247586,15.708913 C16.3732759,15.4575435 15.9711724,15.4447391 15.7048966,15.6792609 L4.26243103,25.7765 C3.98337931,26.0224783 3.95648276,26.4483913 4.20191379,26.7280652 C4.33505172,26.8796957 4.52063793,26.9565217 4.70689655,26.9565217 L4.70689655,26.9565217 Z" id="Shape"></path>
                        </g>
                    </g>
                </g>
                <g id="arrow2" transform="translate(116.500000, 33.000000) scale(-1, 1) rotate(229.000000) translate(-116.500000, -33.000000) translate(100.000000, 2.000000)" fill="#6b15a1">
                    <path d="M11.7129548,10.2787036 C9.6397293,10.6381703 7.23871213,10.9910295 4.85984458,11.4854788 C2.84222838,11.9045839 2.85505281,11.9779613 0.50745111,9.36567917 C1.67455096,9.0782406 2.56717456,8.85877946 3.25902514,8.68993872 C2.97684483,6.77705751 3.05510874,5.24321137 5.22712984,4.79972147 C8.21063381,4.19048587 11.2244772,3.72206797 14.181697,2.98566106 C16.1343134,2.49798328 18.0102918,1.64191018 20.3269807,0.805057957 C22.8489926,1.63850497 23.262075,4.05705648 23.5694394,7.12564971 C24.07583,12.1852294 25.4101998,17.1326877 26.3094189,22.1457433 C26.7102699,24.3776949 26.947704,26.6480919 27.1515474,28.9140585 C27.1928011,29.3815389 26.7561096,29.9075471 26.540355,30.4064019 C26.0688561,30.0673031 25.4271617,29.8354464 25.1659709,29.3673179 C24.7764903,28.6761894 24.6978748,27.8006012 24.4174072,27.0315002 C22.4005987,21.4940822 20.3871025,15.9555335 18.3149979,10.4407507 C18.0435705,9.72001512 17.4537094,9.13371511 16.5563448,7.82049602 C14.8137313,11.3758968 12.8584438,14.3043915 11.8929138,17.5291781 C8.73463182,28.0710103 8.32349636,38.5256823 12.5780017,48.8545039 C15.9816443,57.1209012 22.1631863,60.6494553 30.4413535,61.2255441 C30.9884517,61.2627875 31.5339007,61.3162029 32.0688207,61.8961115 C30.5189312,61.8407598 28.9582219,61.8717714 27.4201566,61.7126594 C21.0452814,61.0571108 15.9666319,58.3160617 12.5819302,52.4602679 C7.45192195,43.5833701 6.03502166,33.9808334 7.90680067,23.8232792 C8.73454974,19.3283103 10.3664663,14.974467 11.7129548,10.2787036" id="Fill-1"></path>
                </g>
                <g id="arrow1" transform="translate(248.500000, 174.500000) rotate(180.000000) translate(-248.500000, -174.500000) translate(220.000000, 151.000000)">
                    <mask id="mask-11" fill="white">
                        <use xlink:href="#path-10"></use>
                    </mask>
                    <g id="Clip-2"></g>
                    <path d="M45.502,11.5127 C44.585,9.5347 43.584,7.2257 42.453,4.9797 C41.494,3.0747 41.427,3.1087 43.291,-0.0003 C43.889,1.0887 44.346,1.9217 44.699,2.5677 C46.46,1.7337 47.956,1.3707 48.981,3.4237 C50.389,6.2437 51.67,9.1347 53.193,11.8917 C54.2,13.7117 55.54,15.3487 56.983,17.4337 C56.877,20.2057 54.666,21.3167 51.801,22.5087 C47.077,24.4737 42.689,27.2377 38.118,29.5837 C36.083,30.6287 33.966,31.5207 31.844,32.3777 C31.406,32.5537 30.78,32.2667 30.241,32.1937 C30.437,31.6227 30.483,30.9117 30.861,30.5147 C31.418,29.9247 32.238,29.5937 32.9,29.0907 C37.667,25.4717 42.436,21.8557 47.166,18.1877 C47.784,17.7077 48.185,16.9467 49.2,15.6677 C45.302,14.9417 41.948,13.8217 38.582,13.7807 C27.578,13.6447 17.415,16.2417 8.659,23.4867 C1.651,29.2837 -0.037,36.5057 1.691,44.9827 C1.806,45.5427 1.905,46.1057 1.495,46.8097 C1.121,45.2377 0.661,43.6797 0.39,42.0897 C-0.737,35.5007 0.498,29.6127 5.194,24.5287 C12.313,16.8227 21.153,12.6357 31.433,11.5907 C35.982,11.1277 40.617,11.5127 45.502,11.5127" id="Fill-1" fill="#6b15a1" mask="url(#mask-11)"></path>
                </g>
            </g>
        </g>
    </g>
</svg>