<?xml version="1.0" encoding="UTF-8" standalone="no"?>
<svg width="278px" height="310px" viewBox="0 0 278 310" version="1.1" xmlns="http://www.w3.org/2000/svg" xmlns:xlink="http://www.w3.org/1999/xlink">
    <!-- Generator: Sketch 39.1 (31720) - http://www.bohemiancoding.com/sketch -->
    <title>stage2content</title>
    <desc>Created with Sketch.</desc>
    <defs>
        <rect id="path-1" x="0" y="37" width="256" height="273" rx="7"></rect>
        <mask id="mask-2" maskContentUnits="userSpaceOnUse" maskUnits="objectBoundingBox" x="0" y="0" width="256" height="273" fill="white">
            <use xlink:href="#path-1"></use>
        </mask>
        <rect id="path-3" x="0" y="0" width="78" height="21"></rect>
        <mask id="mask-4" maskContentUnits="userSpaceOnUse" maskUnits="objectBoundingBox" x="0" y="0" width="78" height="21" fill="white">
            <use xlink:href="#path-3"></use>
        </mask>
        <circle id="path-5" cx="15" cy="15" r="15"></circle>
        <mask id="mask-6" maskContentUnits="userSpaceOnUse" maskUnits="objectBoundingBox" x="0" y="0" width="30" height="30" fill="white">
            <use xlink:href="#path-5"></use>
        </mask>
        <ellipse id="path-7" cx="15.6976744" cy="15" rx="15.6976744" ry="15"></ellipse>
        <mask id="mask-8" maskContentUnits="userSpaceOnUse" maskUnits="objectBoundingBox" x="0" y="0" width="31.3953488" height="30" fill="white">
            <use xlink:href="#path-7"></use>
        </mask>
        <ellipse id="path-9" cx="15.6976744" cy="15" rx="15.6976744" ry="15"></ellipse>
        <mask id="mask-10" maskContentUnits="userSpaceOnUse" maskUnits="objectBoundingBox" x="0" y="0" width="31.3953488" height="30" fill="white">
            <use xlink:href="#path-9"></use>
        </mask>
        <polygon id="path-11" points="0.000501464093 46.8096 56.983 46.8096 56.983 23.40465 56.983 -0.0003 0.000501464093 -0.0003"></polygon>
    </defs>
    <g id="Page-1" stroke="none" stroke-width="1" fill="none" fill-rule="evenodd">
        <g id="Stage2" transform="translate(0.000000, -13.000000)">
            <g id="stage2content" transform="translate(0.000000, 13.000000)">
                <use id="Rectangle-1" stroke="#D3D3D3" mask="url(#mask-2)" stroke-width="2" xlink:href="#path-1"></use>
                <g id="Browser">
                    <path d="M6.9968285,0 C3.13258682,0 0,3.1290982 0,6.99624172 L0,44 L256,44 L256,6.99624172 C256,3.13232411 252.867029,0 249.003171,0 L6.9968285,0 Z" id="background" fill="#D4D4D4"></path>
                    <circle id="object" fill="#E96E4C" cx="13.9" cy="22.5" r="4.5"></circle>
                    <path d="M24.9666667,27 C27.451948,27 29.4666667,24.9852814 29.4666667,22.5 C29.4666667,20.0147186 27.451948,18 24.9666667,18 C22.4813853,18 20.4666667,20.0147186 20.4666667,22.5 C20.4666667,24.9852814 22.4813853,27 24.9666667,27 Z" id="object" fill="#E6AA34"></path>
                    <ellipse id="object" fill="#85C33D" cx="36.5" cy="23" rx="4.5" ry="5"></ellipse>
                    <rect id="search" fill="#FFFFFF" opacity="0.85" x="56" y="13" width="181" height="19"></rect>
                </g>
                <g id="herosection" transform="translate(56.000000, 80.000000)">
                    <g id="button" transform="translate(32.000000, 37.000000)">
                        <use id="Rectangle-2" stroke="#979797" mask="url(#mask-4)" stroke-width="2" fill="#D8D8D8" xlink:href="#path-3"></use>
                        <text font-family="Helvetica-Bold, Helvetica" font-size="14" font-weight="bold" fill="#BBBDBF">
                            <tspan x="17" y="14">button</tspan>
                        </text>
                    </g>
                    <text id="MY-OWN-STUFF" font-family="Helvetica-Bold, Helvetica" font-size="20" font-weight="bold" fill="#BBBDBF">
                        <tspan x="0" y="19">MY OWN STUFF</tspan>
                    </text>
                </g>
                <g id="team" transform="translate(33.000000, 187.000000)">
                    <g id="team1" transform="translate(0.000000, 1.000000)">
                        <path d="M0.5,38.5 L42.5,38.5" id="Line" stroke="#979797" stroke-linecap="square"></path>
                        <path d="M9.5,48.5 L34.5,48.5" id="Line" stroke="#979797" stroke-linecap="square"></path>
                        <g id="Ava-circle-60x60" transform="translate(7.000000, 0.000000)">
                            <use id="Oval-32" stroke="#B7BCC0" mask="url(#mask-6)" stroke-width="2" fill="#FFFFFF" xlink:href="#path-5"></use>
                            <path d="M23.0291667,20.8766667 L23.0291667,22.6875 L15,22.6875 L6.97083333,22.6875 L6.97083333,20.8766667 C6.97083333,20.3072194 8.13248838,19.6125041 10.4558333,18.7925 C11.5263942,18.4052758 12.2552758,18.0123631 12.6425,17.61375 C13.0297242,17.2151369 13.2233333,16.6741701 13.2233333,15.9908333 C13.2233333,15.7402765 13.0980568,15.4612515 12.8475,15.15375 C12.5969432,14.8462485 12.4147228,14.4305582 12.3008333,13.9066667 C12.2780554,13.7699993 12.226806,13.6675003 12.1470833,13.5991667 C12.0673607,13.530833 11.9876393,13.4852779 11.9079167,13.4625 C11.828194,13.4397221 11.7484726,13.3429175 11.66875,13.1720833 C11.5890274,13.0012491 11.5377779,12.7563905 11.515,12.4375 C11.515,12.2552769 11.5434719,12.1072228 11.6004167,11.9933333 C11.6573614,11.8794439 11.7086109,11.8111112 11.7541667,11.7883333 L11.8225,11.72 C11.7313884,11.1505527 11.6630558,10.6494466 11.6175,10.2166667 C11.5719442,9.60166359 11.8054141,8.96389219 12.3179167,8.30333333 C12.8304192,7.64277447 13.7244381,7.3125 15,7.3125 C16.2755619,7.3125 17.1752752,7.64277447 17.6991667,8.30333333 C18.2230582,8.96389219 18.4508337,9.60166359 18.3825,10.2166667 L18.1775,11.72 C18.382501,11.8111116 18.485,12.0502758 18.485,12.4375 C18.4622221,12.7563905 18.4109726,13.0012491 18.33125,13.1720833 C18.2515274,13.3429175 18.171806,13.4397221 18.0920833,13.4625 C18.0123607,13.4852779 17.9326393,13.530833 17.8529167,13.5991667 C17.773194,13.6675003 17.7219446,13.7699993 17.6991667,13.9066667 C17.6080551,14.4533361 17.4315291,14.8747207 17.1695833,15.1708333 C16.9076376,15.4669459 16.7766667,15.7402765 16.7766667,15.9908333 C16.7766667,16.6741701 16.9759702,17.2151369 17.3745833,17.61375 C17.7731964,18.0123631 18.4963836,18.4052758 19.5441667,18.7925 C21.8675116,19.6125041 23.0291667,20.3072194 23.0291667,20.8766667 Z" id="ava-2" stroke="#BBBDBF"></path>
                        </g>
                    </g>
                    <g id="team1" transform="translate(73.000000, 0.000000)">
                        <path d="M0.523255814,38.5 L44.4767442,38.5" id="Line" stroke="#979797" stroke-linecap="square"></path>
                        <path d="M9.94186047,48.5 L36.1046512,48.5" id="Line" stroke="#979797" stroke-linecap="square"></path>
                        <g id="Ava-circle-60x60" transform="translate(7.325581, 0.000000)">
                            <use id="Oval-32" stroke="#B7BCC0" mask="url(#mask-8)" stroke-width="2" fill="#FFFFFF" xlink:href="#path-7"></use>
                            <path d="M24.1002907,20.8766667 L24.1002907,22.6875 L15.6976744,22.6875 L7.29505814,22.6875 L7.29505814,20.8766667 C7.29505814,20.3072194 8.51074366,19.6125041 10.9421512,18.7925 C12.0625056,18.4052758 12.8252887,18.0123631 13.2305233,17.61375 C13.6357578,17.2151369 13.8383721,16.6741701 13.8383721,15.9908333 C13.8383721,15.7402765 13.7072688,15.4612515 13.4450581,15.15375 C13.1828475,14.8462485 12.9921518,14.4305582 12.8729651,13.9066667 C12.8491278,13.7699993 12.7954946,13.6675003 12.712064,13.5991667 C12.6286333,13.530833 12.5452039,13.4852779 12.4617733,13.4625 C12.3783426,13.4397221 12.2949132,13.3429175 12.2114826,13.1720833 C12.1280519,13.0012491 12.0744187,12.7563905 12.0505814,12.4375 C12.0505814,12.2552769 12.0803776,12.1072228 12.1399709,11.9933333 C12.1995643,11.8794439 12.2531974,11.8111112 12.3008721,11.7883333 L12.3723837,11.72 C12.2770344,11.1505527 12.2055235,10.6494466 12.1578488,10.2166667 C12.1101742,9.60166359 12.3545031,8.96389219 12.890843,8.30333333 C13.4271829,7.64277447 14.362784,7.3125 15.6976744,7.3125 C17.0325648,7.3125 17.9741252,7.64277447 18.5223837,8.30333333 C19.0706423,8.96389219 19.309012,9.60166359 19.2375,10.2166667 L19.0229651,11.72 C19.2375011,11.8111116 19.3447674,12.0502758 19.3447674,12.4375 C19.3209301,12.7563905 19.2672969,13.0012491 19.1838663,13.1720833 C19.1004356,13.3429175 19.0170062,13.4397221 18.9335756,13.4625 C18.8501449,13.4852779 18.7667155,13.530833 18.6832849,13.5991667 C18.5998542,13.6675003 18.546221,13.7699993 18.5223837,13.9066667 C18.4270344,14.4533361 18.2422979,14.8747207 17.9681686,15.1708333 C17.6940393,15.4669459 17.5569767,15.7402765 17.5569767,15.9908333 C17.5569767,16.6741701 17.7655502,17.2151369 18.1827035,17.61375 C18.5998567,18.0123631 19.3566806,18.4052758 20.4531977,18.7925 C22.8846052,19.6125041 24.1002907,20.3072194 24.1002907,20.8766667 Z" id="ava-2" stroke="#BBBDBF"></path>
                        </g>
                    </g>
                    <g id="team1" transform="translate(144.000000, 1.000000)">
                        <path d="M0.523255814,38.5 L44.4767442,38.5" id="Line" stroke="#979797" stroke-linecap="square"></path>
                        <path d="M9.94186047,48.5 L36.1046512,48.5" id="Line" stroke="#979797" stroke-linecap="square"></path>
                        <g id="Ava-circle-60x60" transform="translate(7.325581, 0.000000)">
                            <use id="Oval-32" stroke="#B7BCC0" mask="url(#mask-10)" stroke-width="2" fill="#FFFFFF" xlink:href="#path-9"></use>
                            <path d="M24.1002907,20.8766667 L24.1002907,22.6875 L15.6976744,22.6875 L7.29505814,22.6875 L7.29505814,20.8766667 C7.29505814,20.3072194 8.51074366,19.6125041 10.9421512,18.7925 C12.0625056,18.4052758 12.8252887,18.0123631 13.2305233,17.61375 C13.6357578,17.2151369 13.8383721,16.6741701 13.8383721,15.9908333 C13.8383721,15.7402765 13.7072688,15.4612515 13.4450581,15.15375 C13.1828475,14.8462485 12.9921518,14.4305582 12.8729651,13.9066667 C12.8491278,13.7699993 12.7954946,13.6675003 12.712064,13.5991667 C12.6286333,13.530833 12.5452039,13.4852779 12.4617733,13.4625 C12.3783426,13.4397221 12.2949132,13.3429175 12.2114826,13.1720833 C12.1280519,13.0012491 12.0744187,12.7563905 12.0505814,12.4375 C12.0505814,12.2552769 12.0803776,12.1072228 12.1399709,11.9933333 C12.1995643,11.8794439 12.2531974,11.8111112 12.3008721,11.7883333 L12.3723837,11.72 C12.2770344,11.1505527 12.2055235,10.6494466 12.1578488,10.2166667 C12.1101742,9.60166359 12.3545031,8.96389219 12.890843,8.30333333 C13.4271829,7.64277447 14.362784,7.3125 15.6976744,7.3125 C17.0325648,7.3125 17.9741252,7.64277447 18.5223837,8.30333333 C19.0706423,8.96389219 19.309012,9.60166359 19.2375,10.2166667 L19.0229651,11.72 C19.2375011,11.8111116 19.3447674,12.0502758 19.3447674,12.4375 C19.3209301,12.7563905 19.2672969,13.0012491 19.1838663,13.1720833 C19.1004356,13.3429175 19.0170062,13.4397221 18.9335756,13.4625 C18.8501449,13.4852779 18.7667155,13.530833 18.6832849,13.5991667 C18.5998542,13.6675003 18.546221,13.7699993 18.5223837,13.9066667 C18.4270344,14.4533361 18.2422979,14.8747207 17.9681686,15.1708333 C17.6940393,15.4669459 17.5569767,15.7402765 17.5569767,15.9908333 C17.5569767,16.6741701 17.7655502,17.2151369 18.1827035,17.61375 C18.5998567,18.0123631 19.3566806,18.4052758 20.4531977,18.7925 C22.8846052,19.6125041 24.1002907,20.3072194 24.1002907,20.8766667 Z" id="ava-2" stroke="#BBBDBF"></path>
                        </g>
                    </g>
                </g>
                <g id="cursor" opacity="0.269764459" transform="translate(207.000000, 67.000000)" fill="#000000">
                    <path d="M15.9712317,37.3464655 C15.9712317,38.2499412 15.3291365,38.9819916 14.5440571,38.9819916 L11.4721206,38.9819916 C10.1092,38.9819916 8.87777143,38.3439487 7.98577143,37.3135047 C7.09345397,38.3439487 5.86246984,38.9819916 4.49916825,38.9819916 L1.42716825,38.9819916 C0.642088889,38.9819916 -6.34920638e-06,38.2499412 -6.34920638e-06,37.3464655 C-6.34920638e-06,36.442917 0.642088889,35.7108666 1.42716825,35.7108666 L4.49916825,35.7108666 C5.63383492,35.7108666 6.55789841,34.6519729 6.55789841,33.3516576 L6.55789841,5.63073414 C6.55789841,4.33041884 5.63383492,3.27145243 4.49916825,3.27145243 L1.42716825,3.27145243 C0.642088889,3.27145243 -6.34920638e-06,2.53940205 -6.34920638e-06,1.63592631 C-0.000387301587,0.732013993 0.642088889,3.6380597e-05 1.42716825,3.6380597e-05 L4.49916825,3.6380597e-05 C5.86246984,3.6380597e-05 7.09345397,0.63800653 7.98545397,1.6683778 C8.87739048,0.63800653 10.1083746,3.6380597e-05 11.4716762,3.6380597e-05 L14.5437397,3.6380597e-05 C15.3287556,3.6380597e-05 15.9708508,0.732013993 15.9708508,1.63548974 C15.9708508,2.53903825 15.3287556,3.27101586 14.5437397,3.27101586 L11.4716762,3.27101586 C10.337073,3.27101586 9.41294603,4.32998228 9.41294603,5.63029757 L9.41294603,33.3507845 C9.41294603,34.6510271 10.337073,35.7100662 11.4716762,35.7100662 L14.5437397,35.7100662 C15.3287556,35.7105028 15.9712317,36.4424804 15.9712317,37.3464655" id="Fill-1"></path>
                </g>
                <g id="Page-1" transform="translate(249.500000, 83.500000) rotate(180.000000) translate(-249.500000, -83.500000) translate(221.000000, 60.000000)">
                    <mask id="mask-12" fill="white">
                        <use xlink:href="#path-11"></use>
                    </mask>
                    <g id="Clip-2"></g>
                    <path d="M45.502,11.5127 C44.585,9.5347 43.584,7.2257 42.453,4.9797 C41.494,3.0747 41.427,3.1087 43.291,-0.0003 C43.889,1.0887 44.346,1.9217 44.699,2.5677 C46.46,1.7337 47.956,1.3707 48.981,3.4237 C50.389,6.2437 51.67,9.1347 53.193,11.8917 C54.2,13.7117 55.54,15.3487 56.983,17.4337 C56.877,20.2057 54.666,21.3167 51.801,22.5087 C47.077,24.4737 42.689,27.2377 38.118,29.5837 C36.083,30.6287 33.966,31.5207 31.844,32.3777 C31.406,32.5537 30.78,32.2667 30.241,32.1937 C30.437,31.6227 30.483,30.9117 30.861,30.5147 C31.418,29.9247 32.238,29.5937 32.9,29.0907 C37.667,25.4717 42.436,21.8557 47.166,18.1877 C47.784,17.7077 48.185,16.9467 49.2,15.6677 C45.302,14.9417 41.948,13.8217 38.582,13.7807 C27.578,13.6447 17.415,16.2417 8.659,23.4867 C1.651,29.2837 -0.037,36.5057 1.691,44.9827 C1.806,45.5427 1.905,46.1057 1.495,46.8097 C1.121,45.2377 0.661,43.6797 0.39,42.0897 C-0.737,35.5007 0.498,29.6127 5.194,24.5287 C12.313,16.8227 21.153,12.6357 31.433,11.5907 C35.982,11.1277 40.617,11.5127 45.502,11.5127" id="Fill-1" fill="#6B15A1" mask="url(#mask-12)"></path>
                </g>
                <g id="Page-1" transform="translate(25.000000, 174.000000) scale(-1, 1) rotate(180.000000) translate(-25.000000, -174.000000) translate(10.000000, 142.000000)" fill="#6B15A1">
                    <path d="M16.7878117,7.71219445 C14.7389428,7.23301159 12.3909217,6.61966799 10.0079659,6.14531344 C7.98698298,5.74275619 7.9701171,5.81531136 6.82983827,2.49341194 C8.01647054,2.68484559 8.9238852,2.83160637 9.62670834,2.9465152 C10.1143822,1.07544214 10.785746,-0.305890534 12.9583872,0.134551118 C15.9427645,0.73949466 18.9000474,1.48591614 21.9099196,1.96352782 C23.8978634,2.2775661 25.959205,2.2225498 28.4187127,2.35742574 C30.4145832,4.11004631 29.8498241,6.49773886 28.9337597,9.44249067 C27.4229593,14.2977209 26.7181273,19.3732601 25.5871059,24.339155 C25.0839983,26.5503022 24.4154427,28.7329866 23.7176979,30.8984678 C23.5730129,31.3449049 22.9655086,31.6584691 22.5719874,32.0333653 C22.2704668,31.5369938 21.7703776,31.0728386 21.7128625,30.5398688 C21.6243892,29.7514994 21.8941428,28.9147987 21.9364827,28.09725 C22.2436422,22.2120001 22.5542927,16.3270035 22.8017076,10.4409834 C22.8334712,9.67148762 22.5195869,8.90131854 22.206674,7.34186571 C19.213384,9.93373604 16.2692784,11.8654379 14.1204788,14.456607 C7.0942429,22.9263756 2.63082493,32.3893085 2.51132563,43.5594066 C2.41445644,52.4985746 6.72587992,58.1619466 14.1208771,61.9267767 C14.6099315,62.1748278 15.091149,62.4371208 15.356957,63.1799394 C13.9519039,62.5233978 12.5031462,61.9421264 11.1495197,61.1946931 C5.53755935,58.1003953 1.93365101,53.5928598 1.10605759,46.8800649 C-0.147659595,36.7043834 2.30008678,27.3115748 7.99194107,18.6928592 C10.5102124,14.8786458 13.7135816,11.5085525 16.7878117,7.71219445" id="Fill-1"></path>
                </g>
            </g>
        </g>
    </g>
</svg>