<?xml version="1.0" encoding="UTF-8" standalone="no"?>
<svg width="256px" height="310px" viewBox="0 0 256 310" version="1.1" xmlns="http://www.w3.org/2000/svg" xmlns:xlink="http://www.w3.org/1999/xlink">
    <!-- Generator: Sketch 39.1 (31720) - http://www.bohemiancoding.com/sketch -->
    <title>Stage3content</title>
    <desc>Created with Sketch.</desc>
    <defs>
        <rect id="path-1" x="0" y="37" width="256" height="273" rx="7"></rect>
        <mask id="mask-2" maskContentUnits="userSpaceOnUse" maskUnits="objectBoundingBox" x="0" y="0" width="256" height="273" fill="white">
            <use xlink:href="#path-1"></use>
        </mask>
        <rect id="path-3" x="0" y="3" width="78" height="21"></rect>
        <mask id="mask-4" maskContentUnits="userSpaceOnUse" maskUnits="objectBoundingBox" x="0" y="0" width="78" height="21" fill="white">
            <use xlink:href="#path-3"></use>
        </mask>
        <circle id="path-5" cx="15" cy="15" r="15"></circle>
        <mask id="mask-6" maskContentUnits="userSpaceOnUse" maskUnits="objectBoundingBox" x="0" y="0" width="30" height="30" fill="white">
            <use xlink:href="#path-5"></use>
        </mask>
        <ellipse id="path-7" cx="15.6976744" cy="15" rx="15.6976744" ry="15"></ellipse>
        <mask id="mask-8" maskContentUnits="userSpaceOnUse" maskUnits="objectBoundingBox" x="0" y="0" width="31.3953488" height="30" fill="white">
            <use xlink:href="#path-7"></use>
        </mask>
        <ellipse id="path-9" cx="15.6976744" cy="15" rx="15.6976744" ry="15"></ellipse>
        <mask id="mask-10" maskContentUnits="userSpaceOnUse" maskUnits="objectBoundingBox" x="0" y="0" width="31.3953488" height="30" fill="white">
            <use xlink:href="#path-9"></use>
        </mask>
    </defs>
    <g id="Page-1" stroke="none" stroke-width="1" fill="none" fill-rule="evenodd">
        <g id="Stage3" transform="translate(0.000000, -14.000000)">
            <g id="Stage3content" transform="translate(0.000000, 14.000000)">
                <use id="Rectangle-1" stroke="#D3D3D3" mask="url(#mask-2)" stroke-width="2" xlink:href="#path-1"></use>
                <g id="button" transform="translate(88.000000, 114.000000)">
                    <use id="Rectangle-2" stroke="#979797" mask="url(#mask-4)" stroke-width="2" fill="#118C4E" xlink:href="#path-3"></use>
                    <text id="CTA" font-family="Chalkduster" font-size="14" font-weight="normal" fill="#FFFFFF">
                        <tspan x="23" y="18">CTA</tspan>
                    </text>
                </g>
                <g id="Browser">
                    <path d="M6.9968285,0 C3.13258682,0 0,3.1290982 0,6.99624172 L0,44 L256,44 L256,6.99624172 C256,3.13232411 252.867029,0 249.003171,0 L6.9968285,0 Z" id="background" fill="#D4D4D4"></path>
                    <circle id="object" fill="#E96E4C" cx="13.9" cy="22.5" r="4.5"></circle>
                    <path d="M24.9666667,27 C27.451948,27 29.4666667,24.9852814 29.4666667,22.5 C29.4666667,20.0147186 27.451948,18 24.9666667,18 C22.4813853,18 20.4666667,20.0147186 20.4666667,22.5 C20.4666667,24.9852814 22.4813853,27 24.9666667,27 Z" id="object" fill="#E6AA34"></path>
                    <ellipse id="object" fill="#85C33D" cx="36.5" cy="23" rx="4.5" ry="5"></ellipse>
                    <rect id="search" fill="#FFFFFF" opacity="0.85" x="56" y="13" width="181" height="19"></rect>
                </g>
                <text id="MY-OWN-STUFF" font-family="Chalkduster" font-size="20" font-weight="normal" fill="#118C4E">
                    <tspan x="42" y="99">MY OWN STUFF</tspan>
                </text>
                <g id="team" transform="translate(33.000000, 186.000000)">
                    <g id="team1" transform="translate(0.000000, 1.000000)">
                        <path d="M0.5,38.5 L42.5,38.5" id="Line" stroke="#118C4E" stroke-linecap="square"></path>
                        <path d="M9.5,48.5 L34.5,48.5" id="Line" stroke="#118C4E" stroke-linecap="square"></path>
                        <g id="Ava-circle-60x60" transform="translate(7.000000, 0.000000)">
                            <use id="Oval-32" stroke="#B7BCC0" mask="url(#mask-6)" stroke-width="2" fill="#118C4E" xlink:href="#path-5"></use>
                            <path d="M23.0291667,20.8766667 L23.0291667,22.6875 L15,22.6875 L6.97083333,22.6875 L6.97083333,20.8766667 C6.97083333,20.3072194 8.13248838,19.6125041 10.4558333,18.7925 C11.5263942,18.4052758 12.2552758,18.0123631 12.6425,17.61375 C13.0297242,17.2151369 13.2233333,16.6741701 13.2233333,15.9908333 C13.2233333,15.7402765 13.0980568,15.4612515 12.8475,15.15375 C12.5969432,14.8462485 12.4147228,14.4305582 12.3008333,13.9066667 C12.2780554,13.7699993 12.226806,13.6675003 12.1470833,13.5991667 C12.0673607,13.530833 11.9876393,13.4852779 11.9079167,13.4625 C11.828194,13.4397221 11.7484726,13.3429175 11.66875,13.1720833 C11.5890274,13.0012491 11.5377779,12.7563905 11.515,12.4375 C11.515,12.2552769 11.5434719,12.1072228 11.6004167,11.9933333 C11.6573614,11.8794439 11.7086109,11.8111112 11.7541667,11.7883333 L11.8225,11.72 C11.7313884,11.1505527 11.6630558,10.6494466 11.6175,10.2166667 C11.5719442,9.60166359 11.8054141,8.96389219 12.3179167,8.30333333 C12.8304192,7.64277447 13.7244381,7.3125 15,7.3125 C16.2755619,7.3125 17.1752752,7.64277447 17.6991667,8.30333333 C18.2230582,8.96389219 18.4508337,9.60166359 18.3825,10.2166667 L18.1775,11.72 C18.382501,11.8111116 18.485,12.0502758 18.485,12.4375 C18.4622221,12.7563905 18.4109726,13.0012491 18.33125,13.1720833 C18.2515274,13.3429175 18.171806,13.4397221 18.0920833,13.4625 C18.0123607,13.4852779 17.9326393,13.530833 17.8529167,13.5991667 C17.773194,13.6675003 17.7219446,13.7699993 17.6991667,13.9066667 C17.6080551,14.4533361 17.4315291,14.8747207 17.1695833,15.1708333 C16.9076376,15.4669459 16.7766667,15.7402765 16.7766667,15.9908333 C16.7766667,16.6741701 16.9759702,17.2151369 17.3745833,17.61375 C17.7731964,18.0123631 18.4963836,18.4052758 19.5441667,18.7925 C21.8675116,19.6125041 23.0291667,20.3072194 23.0291667,20.8766667 Z" id="ava-2" stroke="#BBBDBF" fill="#FFFFFF"></path>
                        </g>
                    </g>
                    <g id="team1" transform="translate(73.000000, 0.000000)">
                        <path d="M0.523255814,38.5 L44.4767442,38.5" id="Line" stroke="#118C4E" stroke-linecap="square"></path>
                        <path d="M9.94186047,48.5 L36.1046512,48.5" id="Line" stroke="#118C4E" stroke-linecap="square"></path>
                        <g id="Ava-circle-60x60" transform="translate(7.325581, 0.000000)">
                            <use id="Oval-32" stroke="#B7BCC0" mask="url(#mask-8)" stroke-width="2" fill="#118C4E" xlink:href="#path-7"></use>
                            <path d="M24.1002907,20.8766667 L24.1002907,22.6875 L15.6976744,22.6875 L7.29505814,22.6875 L7.29505814,20.8766667 C7.29505814,20.3072194 8.51074366,19.6125041 10.9421512,18.7925 C12.0625056,18.4052758 12.8252887,18.0123631 13.2305233,17.61375 C13.6357578,17.2151369 13.8383721,16.6741701 13.8383721,15.9908333 C13.8383721,15.7402765 13.7072688,15.4612515 13.4450581,15.15375 C13.1828475,14.8462485 12.9921518,14.4305582 12.8729651,13.9066667 C12.8491278,13.7699993 12.7954946,13.6675003 12.712064,13.5991667 C12.6286333,13.530833 12.5452039,13.4852779 12.4617733,13.4625 C12.3783426,13.4397221 12.2949132,13.3429175 12.2114826,13.1720833 C12.1280519,13.0012491 12.0744187,12.7563905 12.0505814,12.4375 C12.0505814,12.2552769 12.0803776,12.1072228 12.1399709,11.9933333 C12.1995643,11.8794439 12.2531974,11.8111112 12.3008721,11.7883333 L12.3723837,11.72 C12.2770344,11.1505527 12.2055235,10.6494466 12.1578488,10.2166667 C12.1101742,9.60166359 12.3545031,8.96389219 12.890843,8.30333333 C13.4271829,7.64277447 14.362784,7.3125 15.6976744,7.3125 C17.0325648,7.3125 17.9741252,7.64277447 18.5223837,8.30333333 C19.0706423,8.96389219 19.309012,9.60166359 19.2375,10.2166667 L19.0229651,11.72 C19.2375011,11.8111116 19.3447674,12.0502758 19.3447674,12.4375 C19.3209301,12.7563905 19.2672969,13.0012491 19.1838663,13.1720833 C19.1004356,13.3429175 19.0170062,13.4397221 18.9335756,13.4625 C18.8501449,13.4852779 18.7667155,13.530833 18.6832849,13.5991667 C18.5998542,13.6675003 18.546221,13.7699993 18.5223837,13.9066667 C18.4270344,14.4533361 18.2422979,14.8747207 17.9681686,15.1708333 C17.6940393,15.4669459 17.5569767,15.7402765 17.5569767,15.9908333 C17.5569767,16.6741701 17.7655502,17.2151369 18.1827035,17.61375 C18.5998567,18.0123631 19.3566806,18.4052758 20.4531977,18.7925 C22.8846052,19.6125041 24.1002907,20.3072194 24.1002907,20.8766667 Z" id="ava-2" stroke="#BBBDBF" fill="#FFFFFF"></path>
                        </g>
                    </g>
                    <g id="team1" transform="translate(144.000000, 1.000000)">
                        <path d="M0.523255814,38.5 L44.4767442,38.5" id="Line" stroke="#118C4E" stroke-linecap="square"></path>
                        <path d="M9.94186047,48.5 L36.1046512,48.5" id="Line" stroke="#118C4E" stroke-linecap="square"></path>
                        <g id="Ava-circle-60x60" transform="translate(7.325581, 0.000000)">
                            <use id="Oval-32" stroke="#B7BCC0" mask="url(#mask-10)" stroke-width="2" fill="#118C4E" xlink:href="#path-9"></use>
                            <path d="M24.1002907,20.8766667 L24.1002907,22.6875 L15.6976744,22.6875 L7.29505814,22.6875 L7.29505814,20.8766667 C7.29505814,20.3072194 8.51074366,19.6125041 10.9421512,18.7925 C12.0625056,18.4052758 12.8252887,18.0123631 13.2305233,17.61375 C13.6357578,17.2151369 13.8383721,16.6741701 13.8383721,15.9908333 C13.8383721,15.7402765 13.7072688,15.4612515 13.4450581,15.15375 C13.1828475,14.8462485 12.9921518,14.4305582 12.8729651,13.9066667 C12.8491278,13.7699993 12.7954946,13.6675003 12.712064,13.5991667 C12.6286333,13.530833 12.5452039,13.4852779 12.4617733,13.4625 C12.3783426,13.4397221 12.2949132,13.3429175 12.2114826,13.1720833 C12.1280519,13.0012491 12.0744187,12.7563905 12.0505814,12.4375 C12.0505814,12.2552769 12.0803776,12.1072228 12.1399709,11.9933333 C12.1995643,11.8794439 12.2531974,11.8111112 12.3008721,11.7883333 L12.3723837,11.72 C12.2770344,11.1505527 12.2055235,10.6494466 12.1578488,10.2166667 C12.1101742,9.60166359 12.3545031,8.96389219 12.890843,8.30333333 C13.4271829,7.64277447 14.362784,7.3125 15.6976744,7.3125 C17.0325648,7.3125 17.9741252,7.64277447 18.5223837,8.30333333 C19.0706423,8.96389219 19.309012,9.60166359 19.2375,10.2166667 L19.0229651,11.72 C19.2375011,11.8111116 19.3447674,12.0502758 19.3447674,12.4375 C19.3209301,12.7563905 19.2672969,13.0012491 19.1838663,13.1720833 C19.1004356,13.3429175 19.0170062,13.4397221 18.9335756,13.4625 C18.8501449,13.4852779 18.7667155,13.530833 18.6832849,13.5991667 C18.5998542,13.6675003 18.546221,13.7699993 18.5223837,13.9066667 C18.4270344,14.4533361 18.2422979,14.8747207 17.9681686,15.1708333 C17.6940393,15.4669459 17.5569767,15.7402765 17.5569767,15.9908333 C17.5569767,16.6741701 17.7655502,17.2151369 18.1827035,17.61375 C18.5998567,18.0123631 19.3566806,18.4052758 20.4531977,18.7925 C22.8846052,19.6125041 24.1002907,20.3072194 24.1002907,20.8766667 Z" id="ava-2" stroke="#BBBDBF" fill="#FFFFFF"></path>
                        </g>
                    </g>
                </g>
            </g>
        </g>
    </g>
</svg>